<svg id="Layer_1" data-name="Layer 1" xmlns="http://www.w3.org/2000/svg" viewBox="0 0 388.44 82.8">
    <title>class_planner_logo</title>
    <path d="M63.68,254.61c-3.07-3.22-7.12.36-9.75,2.47-4.47,3.58-8.78,8.16-9.28,14.17-.94,11.39,11.66,15.5,20.27,10.66a1.5,1.5,0,0,0-1.52-2.59c-7,3.93-17.65.38-15.56-9.16A17,17,0,0,1,52.79,262c1-1,7.07-7.09,8.77-5.31,1.34,1.4,3.46-.72,2.12-2.12Z" transform="translate(-44.6 -232.36)"/>
    <path d="M80.2,233.46a336.59,336.59,0,0,0-3.32,49.24,1.5,1.5,0,0,0,3,0,331.16,331.16,0,0,1,3.21-48.44c.27-1.89-2.62-2.7-2.89-.8Z" transform="translate(-44.6 -232.36)"/>
    <path d="M103.49,261.65c-5.07.46-9.7,3.2-11.78,8s-1,11,3.76,13.62a8.3,8.3,0,0,0,11.62-3.37c2.5-5.07.75-11-2.62-15.13-1-1.23-2.85.11-2.51,1.46a42.14,42.14,0,0,0,10.71,19.28c1.34,1.39,3.46-.73,2.12-2.12a39,39,0,0,1-9.94-18l-2.51,1.46c2.27,2.78,3.57,6.61,2.57,10.18-1.17,4.22-6.24,5.92-9.4,2.48-5.6-6.1,1.48-14.31,8-14.91,1.91-.18,1.93-3.18,0-3Z" transform="translate(-44.6 -232.36)"/>
    <path d="M133.94,262.41c-4.19-4.21-11.43-3.46-13.59,2.53-1.11,3.09.05,6.36,1.94,8.86a20.51,20.51,0,0,0,3.72,3.55c.82.67,2.41,1.46,3,2.43,3,5.49-2.4,5.83-4.83,6-1.91.15-1.93,3.15,0,3,4.07-.31,10-1.8,9.2-7.18-.41-2.68-2.74-4.45-4.7-6-2.22-1.78-4.93-3.69-5.55-6.69-1.19-5.7,5.19-7.93,8.73-4.36a1.51,1.51,0,0,0,2.13-2.13Z" transform="translate(-44.6 -232.36)"/>
    <path d="M157.39,261.21c-5.45-.41-14.84.64-14.14,8.33a7.89,7.89,0,0,0,3.2,5.21c1.58,1.33,3.85,2,5.27,3.46,1.53.68,1.84,2,.92,3.85.85,2.08.4,3.3-1.34,3.68a12.91,12.91,0,0,1-5.37,1.4c-1.91.18-1.93,3.18,0,3,4.61-.43,13.15-2.83,11.6-9.19-.67-2.72-3.09-4.64-5.32-6.08-.7-.45-1.48-.8-2.18-1.27-2.7-1.77-2.75-1.57-2-5.23s1.14-3.86,4.58-4.24a25.45,25.45,0,0,1,4.78.08c1.92.14,1.91-2.86,0-3Z" transform="translate(-44.6 -232.36)"/>
    <path d="M170.93,290.16c0-1.26,23.4-2.5,25.72-2.64,1.91-.11,1.94-3.08,0-3l-3,.13c-1.92.08-1.93,3.08,0,3l3-.13v-3c-7.2.44-14.38,1.06-21.54,1.92-2.69.33-7.12.1-7.18,3.72,0,1.93,3,1.93,3,0Z" transform="translate(-44.6 -232.36)"/>
    <path d="M213.34,264.84c2.74,3.34,1.79,8.32,1.59,12.28l-.65,12.51-1.23,24.05,2.56-1.06c-3.07-3-1.3-8-.73-11.64q.62-3.93,1.09-7.89c.86-7.14,1.05-14.26,1.5-21.42.17-2.64,1.21-5.26,3.83-6.57,2.19-1.09,6.14.93,8,2.08,4.06,2.45,5.7,5.87,4,10.33-2.77,7.45-11.63,8.13-18.44,7.54-1.93-.16-1.92,2.84,0,3,8.51.73,19.23-1.13,21.72-10.78C238.78,269,231,262,223,262c-11-.07-8.54,14.54-9.08,21.74s-1.77,14.32-2.72,21.49c-.47,3.58-.39,6.93,2.32,9.56a1.52,1.52,0,0,0,2.56-1.06l1.53-29.82c.35-6.7,2.51-15.49-2.12-21.14-1.23-1.5-3.34.64-2.12,2.12Z" transform="translate(-44.6 -232.36)"/>
    <path d="M248.76,235.38c.67-.08,1.21,52.45-1,52.21-1.91-.21-1.9,2.79,0,3,3.41.37,3.21-4.62,3.44-6.77.82-7.46,1.27-15,1.36-22.46.08-7.17-.16-14.35-.75-21.5-.15-1.86.34-7.89-3.09-7.48-1.9.24-1.92,3.24,0,3Z" transform="translate(-44.6 -232.36)"/>
    <path d="M272.56,271.12a2.83,2.83,0,0,0-2.34-3.68c-2.94-.41-6.05,3.12-7.45,5.27-3.69,5.66-2.47,14.36,4.23,17.21,16.09,6.83,18.33-24.75,2-23.05a1.51,1.51,0,0,0-.76,2.79c2.37,1.63,5,2.32,7.47,3.67,3.67,2,4.4,4.78,4.83,8.6.45,4,.53,7.95,3.86,10.7,1.48,1.22,3.62-.89,2.12-2.12-4.24-3.5-2.18-10.12-4.27-14.75-2.35-5.21-8.22-5.74-12.49-8.69l-.76,2.8c10.14-1.06,11.8,18.48,1.35,17.74-4-.28-6.68-3.92-6.75-7.78a10.12,10.12,0,0,1,1.76-5.61c.79-1.19,4.13-3,4.31-3.9-.4,1.88,2.5,2.69,2.89.8Z" transform="translate(-44.6 -232.36)"/>
    <path d="M295.86,267.89a35.19,35.19,0,0,1,.6,18.52l2.51-.66c-6.85-6,4.92-16.15,10.45-17.35,9.27-2,6.53,18.65,5.75,23.78-.29,1.89,2.6,2.7,2.89.8,1.23-8.06,4.46-31.34-10.1-27.29-7.59,2.12-19.62,14.71-11.11,22.18a1.52,1.52,0,0,0,2.51-.66,38.24,38.24,0,0,0-.61-20.11c-.55-1.85-3.44-1.06-2.89.79Z" transform="translate(-44.6 -232.36)"/>
    <path d="M331.11,270.65a129.79,129.79,0,0,1-2.33,20l3,.4c-.32-6.78,1.38-26.31,12.9-20.95,8.61,4,1.91,13.71,5.06,20.29.83,1.74,3.42.22,2.59-1.52-2.48-5.17,1.66-11.07-1.21-16.53a10.93,10.93,0,0,0-10.24-6c-11.11.6-12.5,16.41-12.1,24.69.07,1.6,2.6,2.14,2.94.4a133.89,133.89,0,0,0,2.44-20.84c.07-1.93-2.93-1.93-3,0Z" transform="translate(-44.6 -232.36)"/>
    <path d="M363.77,282c6.4-3.56,22.3-1.93,22.62-12.69.28-9.05-12.9-7-17.29-3-6.11,5.6-8.66,18.18-3.24,25,5.58,7,18.73,6,25.61,1.75,1.63-1,.13-3.61-1.52-2.59-5.08,3.17-14.63,4.37-19.89.7-6.29-4.38-4.51-15.27-.63-20.64a10.77,10.77,0,0,1,8.72-4.84,6.9,6.9,0,0,1,3.71.88l.74,5c-.46,1.59-3.83,3.14-5.24,3.65-5,1.82-10.33,1.47-15.11,4.13-1.69.94-.17,3.53,1.52,2.59Z" transform="translate(-44.6 -232.36)"/>
    <path d="M405.82,266.49a100.24,100.24,0,0,1,.69,27.73h3c.25-3.08-.72-5.6-1.05-8.63-.48-4.31,1.16-7.66,3.41-11.24,2.1-3.36,4.44-6.31,8.8-6.38,3.49-.06,7.05,1.29,10.49,1.78,1.89.27,2.7-2.62.8-2.89-7.92-1.13-15.2-4.2-20.87,3.26a31.59,31.59,0,0,0-5.21,9.63c-1.52,5,1,9.44.63,14.47-.16,1.94,2.79,1.88,3,0a102.91,102.91,0,0,0-.8-28.53c-.32-1.9-3.21-1.1-2.89.8Z" transform="translate(-44.6 -232.36)"/>
</svg>